<?xml version="1.0" standalone="no"?>
<!DOCTYPE svg PUBLIC "-//W3C//DTD SVG 20010904//EN"
 "http://www.w3.org/TR/2001/REC-SVG-20010904/DTD/svg10.dtd">
<svg version="1.0" xmlns="http://www.w3.org/2000/svg"
 width="1154.000000pt" height="1032.000000pt" viewBox="0 0 1154.000000 1032.000000"
 preserveAspectRatio="xMidYMid meet">

<g transform="translate(0.000000,1032.000000) scale(0.100000,-0.100000)"
fill="#000000" stroke="none">
<path d="M10 5160 l0 -5150 5760 0 5760 0 0 5150 0 5150 -5760 0 -5760 0 0
-5150z m11500 0 l0 -5130 -5740 0 -5740 0 0 5130 0 5130 5740 0 5740 0 0
-5130z"/>
<path d="M5940 9086 c-79 -17 -128 -44 -183 -98 -87 -87 -122 -196 -115 -363
3 -90 7 -109 36 -167 60 -122 159 -188 312 -208 258 -34 446 108 481 366 35
250 -83 429 -309 470 -93 16 -149 16 -222 0z m191 -66 c127 -35 189 -169 176
-379 -11 -167 -56 -262 -147 -309 -64 -33 -160 -27 -228 15 -94 58 -145 220
-123 393 14 109 33 166 73 214 55 67 152 93 249 66z"/>
<path d="M4945 9032 c-135 -40 -214 -105 -268 -219 -24 -53 -31 -82 -34 -157
-8 -151 32 -277 116 -363 80 -83 198 -116 338 -95 262 41 410 244 374 513 -20
148 -90 256 -200 308 -48 22 -72 26 -161 28 -76 2 -121 -2 -165 -15z m222 -78
c50 -37 92 -103 119 -187 22 -68 27 -101 28 -197 1 -100 -2 -121 -22 -165 -39
-86 -81 -118 -175 -136 -148 -28 -258 75 -301 283 -20 98 -20 190 0 259 20 66
44 101 89 129 53 33 83 40 162 37 55 -2 79 -7 100 -23z"/>
<path d="M6726 8993 c-10 -26 -6 -32 35 -54 39 -20 41 -22 34 -57 -19 -109
-136 -576 -155 -621 -10 -21 -15 -23 -54 -17 -39 6 -44 5 -49 -16 -4 -12 -5
-23 -4 -23 8 -4 243 -65 250 -65 4 0 7 9 7 20 0 13 -12 26 -35 37 -27 13 -35
23 -35 42 0 30 45 228 91 408 l32 122 49 -122 c53 -130 211 -484 258 -577 21
-41 37 -60 64 -73 20 -9 40 -17 45 -17 4 0 13 26 20 58 40 181 164 668 173
680 7 8 27 12 52 10 36 -3 41 0 44 19 3 18 -4 24 -40 33 -24 6 -79 22 -123 35
-60 18 -81 21 -87 12 -15 -23 -8 -34 33 -50 l42 -16 -7 -48 c-3 -26 -30 -145
-59 -263 l-53 -215 -33 70 c-37 79 -230 529 -253 590 -18 47 -16 45 -140 83
-81 24 -98 27 -102 15z"/>
<path d="M4349 8885 c-52 -28 -278 -119 -447 -180 -95 -34 -174 -64 -175 -66
-1 -2 13 -46 32 -96 30 -86 34 -92 53 -82 17 9 18 17 12 52 -4 23 -7 49 -8 57
-1 15 115 77 164 86 30 6 16 42 140 -354 44 -139 80 -262 80 -272 0 -12 -15
-28 -39 -42 -27 -16 -37 -27 -33 -40 2 -10 9 -18 15 -18 6 0 82 28 169 62 137
54 158 66 156 83 -3 21 -11 22 -65 10 -28 -6 -33 -4 -46 21 -22 44 -198 596
-195 613 2 11 152 71 178 71 4 0 17 -23 30 -50 16 -34 29 -50 39 -48 19 4 19
29 1 118 -17 82 -26 93 -61 75z"/>
<path d="M8103 8481 c-10 -16 -8 -22 12 -35 42 -28 47 -48 21 -97 -34 -64
-304 -480 -329 -506 l-20 -23 -34 20 c-42 24 -40 24 -53 1 -9 -17 0 -27 73
-80 46 -33 90 -67 97 -75 16 -21 36 -20 44 1 4 10 -3 26 -19 43 -14 14 -25 35
-25 46 0 16 264 452 289 477 7 7 -63 -504 -88 -637 -14 -77 -14 -96 2 -102 7
-2 127 67 267 154 325 202 330 205 330 197 0 -13 -264 -422 -290 -449 l-28
-29 -35 22 c-35 22 -36 22 -46 2 -9 -17 -4 -24 42 -57 28 -21 92 -69 141 -108
84 -66 89 -69 102 -51 13 17 11 23 -18 53 l-33 33 31 57 c36 67 290 469 312
495 19 21 51 22 81 1 22 -16 24 -16 34 2 6 10 11 19 11 20 1 0 -47 37 -105 81
l-105 80 -100 -65 c-164 -108 -406 -254 -412 -248 -4 5 60 466 85 607 4 23 -7
35 -105 107 -60 45 -111 82 -113 82 -2 0 -10 -9 -16 -19z"/>
<path d="M3203 8339 c-18 -12 -33 -25 -33 -30 0 -5 23 -176 50 -380 28 -204
50 -387 50 -407 0 -25 -8 -44 -25 -62 -22 -22 -23 -29 -12 -44 12 -17 20 -14
104 41 50 32 99 63 109 68 14 9 15 15 6 32 -11 21 -13 21 -52 6 -22 -9 -43
-13 -46 -10 -10 9 -34 118 -34 153 0 29 8 37 97 94 146 94 132 92 208 26 36
-32 65 -62 65 -67 0 -4 -13 -18 -30 -31 -32 -23 -37 -40 -17 -56 9 -7 49 14
151 78 76 49 142 93 147 97 4 4 2 16 -6 26 -12 17 -17 17 -48 6 -33 -12 -36
-11 -98 37 -35 27 -173 138 -307 246 -133 109 -243 198 -245 198 -1 0 -17 -10
-34 -21z m181 -312 c58 -48 106 -91 106 -95 0 -9 -179 -126 -184 -121 -2 2
-11 58 -20 124 -9 66 -20 135 -23 154 -3 21 -2 32 5 30 5 -2 57 -43 116 -92z"/>
<path d="M2551 7831 c-120 -115 -131 -128 -116 -141 13 -11 20 -11 33 -2 10 7
27 17 39 24 29 14 34 10 130 -110 l76 -94 -120 -119 c-66 -66 -124 -119 -130
-119 -10 0 -160 190 -170 216 -3 8 3 25 14 37 11 12 23 27 27 34 7 13 -2 43
-13 43 -4 0 -37 -28 -72 -63 -35 -34 -94 -90 -131 -125 -59 -55 -66 -66 -56
-82 11 -17 13 -17 47 6 20 13 41 24 48 24 13 0 350 -404 397 -476 31 -48 32
-40 -19 -110 -7 -9 -5 -18 5 -28 13 -12 32 2 147 112 118 114 130 129 118 145
-12 17 -15 17 -50 -8 -31 -21 -41 -23 -53 -13 -25 21 -192 218 -192 227 0 4
54 61 120 125 98 96 123 116 135 106 23 -19 185 -231 185 -241 0 -6 -12 -26
-26 -45 -21 -28 -24 -37 -14 -49 10 -12 33 5 146 112 104 99 131 130 123 140
-15 18 -25 16 -57 -7 -16 -12 -35 -18 -44 -15 -23 9 -335 385 -396 477 -27 41
-28 35 23 104 7 9 5 18 -5 28 -13 12 -32 -2 -149 -113z"/>
<path d="M9127 7672 c-14 -14 -14 -19 6 -53 20 -35 21 -40 7 -63 -20 -34 -387
-423 -422 -447 -21 -16 -31 -17 -54 -9 -54 21 -50 -6 12 -72 32 -35 111 -124
175 -198 168 -195 146 -184 221 -114 71 66 72 68 59 91 -8 15 -15 13 -62 -17
l-52 -34 -94 98 c-51 55 -93 104 -93 110 0 9 112 140 186 216 12 12 18 10 45
-15 17 -17 49 -54 71 -82 l40 -53 -18 -26 c-11 -15 -23 -33 -28 -40 -10 -12
10 -48 23 -42 3 2 44 42 90 90 83 86 84 88 66 108 l-18 20 -27 -25 c-14 -14
-31 -25 -37 -25 -14 0 -143 140 -143 156 0 6 43 53 96 104 l95 92 26 -23 c33
-32 127 -148 142 -176 10 -19 7 -27 -18 -56 -28 -31 -29 -35 -14 -50 14 -14
21 -11 77 35 33 28 62 54 64 57 1 4 -55 70 -125 147 -71 77 -162 178 -204 226
-69 77 -78 84 -92 70z"/>
<path d="M4721 7250 c-157 -33 -285 -177 -312 -353 -29 -186 71 -377 238 -455
49 -22 72 -27 143 -26 108 0 183 31 258 107 92 94 127 193 120 341 -3 84 -8
102 -41 169 -80 161 -245 250 -406 217z"/>
<path d="M1822 7033 c-48 -78 -51 -87 -37 -103 23 -26 103 -438 93 -485 -2
-13 -30 4 -120 74 -64 50 -118 96 -121 103 -2 7 4 29 14 49 18 36 18 37 -1 54
-17 16 -19 15 -30 -7 -7 -13 -51 -83 -98 -156 -77 -121 -84 -135 -69 -149 14
-14 18 -12 45 18 l30 34 35 -17 c45 -21 421 -306 466 -352 l34 -35 -17 -40
c-18 -39 -15 -61 7 -61 7 0 56 70 109 155 89 143 95 156 77 165 -15 9 -24 5
-48 -22 -28 -31 -32 -32 -53 -19 -54 33 -228 164 -228 172 0 5 10 11 23 14 42
10 252 34 353 41 l102 7 65 103 c46 73 62 105 54 113 -16 16 -27 14 -45 -9
-13 -15 -42 -23 -132 -35 -123 -16 -403 -45 -406 -42 -5 5 -44 338 -44 378 0
25 9 60 20 81 19 37 19 38 1 48 -11 5 -21 10 -23 10 -2 -1 -27 -39 -56 -87z"/>
<path d="M6707 7079 c-110 -17 -225 -107 -280 -215 -87 -175 -52 -382 89 -513
79 -74 145 -101 249 -101 99 0 169 27 240 92 192 175 193 467 3 643 -85 79
-191 112 -301 94z"/>
<path d="M9688 7029 c-16 -9 -17 -13 -3 -39 33 -65 32 -66 -255 -270 -256
-182 -242 -174 -284 -159 -20 7 -38 10 -42 6 -4 -3 45 -93 109 -199 130 -218
184 -280 286 -331 60 -29 74 -32 161 -32 87 0 101 3 160 32 206 102 285 291
202 484 -11 25 -65 117 -119 205 -55 87 -119 194 -143 237 -24 42 -46 77 -49
77 -4 0 -14 -5 -23 -11z m162 -336 c116 -177 106 -324 -30 -446 -128 -115
-286 -143 -392 -71 -38 26 -100 109 -137 181 l-21 42 113 83 c101 74 408 288
415 288 1 0 25 -34 52 -77z"/>
<path d="M5335 6462 c-71 -34 -127 -93 -163 -171 -21 -46 -26 -71 -26 -141 -1
-75 3 -93 30 -151 59 -124 161 -193 284 -193 122 0 225 70 283 194 59 124 36
281 -55 385 -91 103 -232 134 -353 77z"/>
<path d="M4695 6300 c-123 -25 -237 -99 -306 -200 -43 -62 -83 -166 -99 -254
-16 -97 -13 -950 5 -1066 41 -272 182 -486 357 -544 51 -17 188 -36 255 -36
l43 0 0 604 c0 565 1 608 19 665 35 113 128 226 225 273 25 12 46 24 46 27 0
4 -16 16 -35 28 -48 32 -109 112 -136 180 -19 46 -23 80 -25 163 l-1 105 -42
18 c-91 40 -216 55 -306 37z"/>
<path d="M6145 6197 c-129 -43 -210 -137 -235 -275 -29 -160 67 -339 207 -386
188 -64 375 56 414 269 20 107 -19 229 -97 309 -72 74 -202 111 -289 83z"/>
<path d="M6637 6126 c-26 -7 -50 -15 -53 -18 -2 -3 7 -41 22 -84 63 -187 8
-407 -127 -516 -22 -17 -39 -34 -39 -37 0 -3 25 -19 54 -34 108 -57 201 -188
226 -316 6 -32 10 -242 10 -513 l0 -459 23 6 c12 4 58 24 102 45 232 108 357
286 400 570 22 141 21 891 0 975 -48 182 -205 337 -386 380 -77 18 -167 18
-232 1z"/>
<path d="M10228 6080 c-14 -9 -15 -15 -3 -53 7 -24 10 -49 6 -55 -7 -12 -376
-207 -490 -259 -41 -19 -80 -32 -87 -29 -7 3 -21 21 -31 41 -17 32 -20 34 -37
22 -18 -13 -17 -18 21 -103 22 -49 54 -126 72 -171 30 -74 35 -82 52 -72 22
11 23 18 9 55 -16 41 -5 57 63 96 92 53 458 235 489 243 24 6 29 2 48 -34 18
-37 23 -40 41 -30 11 6 18 16 16 22 -3 7 -35 81 -71 165 -36 84 -66 158 -66
163 0 11 -10 11 -32 -1z"/>
<path d="M1146 5858 c-2 -7 -19 -65 -38 -128 l-34 -115 219 -225 c198 -204
216 -225 195 -232 -13 -3 -138 -23 -278 -43 -140 -20 -264 -38 -276 -40 -17
-4 -27 -27 -57 -132 -43 -147 -43 -150 -19 -155 12 -2 22 8 34 34 13 30 23 38
43 38 29 0 497 -161 559 -192 38 -20 38 -20 32 -68 -6 -42 -4 -48 14 -53 16
-4 21 1 26 21 3 15 18 70 33 122 16 52 30 102 32 110 2 9 -4 16 -17 18 -16 2
-25 -7 -39 -38 -16 -36 -22 -41 -44 -36 -49 10 -481 158 -481 165 0 6 479 84
602 97 40 5 58 11 61 23 3 11 -78 101 -244 271 -136 140 -246 256 -245 258 5
4 491 -170 504 -181 9 -7 12 -27 10 -56 -3 -40 0 -46 16 -46 16 0 24 18 47
103 15 57 37 131 48 165 26 75 26 83 2 90 -15 4 -23 -4 -35 -33 -8 -21 -19
-41 -24 -44 -11 -6 -493 155 -562 188 -44 21 -45 22 -45 71 0 39 -4 50 -18 53
-9 2 -19 -2 -21 -10z"/>
<path d="M2990 5837 c0 -25 59 -372 90 -527 70 -353 161 -674 219 -775 16 -27
45 -82 65 -121 41 -83 175 -288 249 -384 83 -107 264 -295 397 -414 319 -283
367 -340 494 -582 182 -345 261 -681 229 -965 l-9 -77 36 13 c165 58 411 238
562 410 133 151 257 371 297 526 11 41 24 86 29 100 35 90 59 440 42 619 -15
153 -46 347 -71 440 -12 41 -29 109 -39 150 -10 41 -31 127 -48 190 -45 167
-53 224 -53 376 0 155 10 147 -107 94 -79 -37 -164 -117 -199 -189 -40 -80
-39 -201 2 -361 40 -154 42 -300 7 -372 -47 -96 -139 -147 -311 -176 -116 -19
-198 -10 -370 44 -166 52 -321 135 -395 213 -40 42 -22 39 77 -12 202 -104
420 -133 650 -86 130 26 145 35 76 44 -79 10 -193 42 -247 69 -82 42 -209 139
-252 195 -99 125 -165 323 -246 736 -61 315 -74 360 -116 427 -48 76 -144 148
-198 148 -24 0 -24 5 -5 -119 8 -55 26 -197 39 -318 26 -229 56 -380 106 -543
16 -53 30 -103 30 -109 0 -25 -42 12 -80 70 -81 125 -148 365 -185 654 -41
327 -48 349 -139 433 -48 44 -141 92 -176 92 -14 0 -13 -19 20 -281 36 -298
79 -530 130 -710 60 -211 51 -231 -34 -74 -84 155 -144 355 -206 688 -55 296
-86 370 -176 423 -66 39 -184 65 -184 41z"/>
<path d="M8485 5840 c-76 -15 -125 -42 -170 -92 -56 -63 -83 -144 -126 -388
-35 -197 -85 -401 -123 -504 -35 -92 -125 -264 -142 -270 -21 -8 -17 15 22
146 19 66 42 149 49 186 8 37 21 96 29 132 17 72 86 611 86 665 0 19 -4 35
-10 35 -32 0 -130 -49 -168 -83 -77 -72 -110 -162 -132 -367 -27 -250 -106
-567 -172 -691 -31 -59 -80 -119 -97 -119 -15 0 -14 12 3 57 23 58 94 368 105
458 6 44 25 191 42 328 18 136 29 250 26 254 -11 11 -82 -15 -124 -46 -88 -64
-131 -163 -179 -411 -86 -444 -171 -719 -260 -840 -94 -127 -273 -229 -460
-261 -100 -16 -103 -18 -73 -34 56 -30 198 -47 344 -42 165 6 236 24 393 97
58 28 107 50 110 50 14 0 -49 -55 -115 -101 -276 -190 -584 -246 -819 -148
-96 40 -117 58 -153 131 -28 56 -31 70 -31 158 0 72 8 130 31 231 41 176 39
285 -6 368 -16 29 -49 71 -74 92 -47 42 -148 95 -200 105 l-31 7 0 -141 c0
-168 -14 -248 -99 -571 -71 -270 -96 -387 -112 -541 -17 -170 2 -500 36 -619
75 -258 114 -348 227 -518 149 -224 433 -454 683 -553 20 -8 21 -6 17 152 -3
97 1 197 8 252 50 370 277 820 526 1043 471 422 668 656 857 1015 110 209 167
395 256 834 39 188 91 498 91 537 0 18 -4 19 -65 7z"/>
<path d="M5376 5710 c-111 -28 -239 -135 -289 -242 -41 -86 -47 -150 -46 -477
l0 -306 20 49 c61 150 207 270 380 311 35 8 80 15 100 15 l36 0 6 -207 c4
-149 11 -235 26 -304 25 -125 71 -300 83 -319 6 -9 7 95 4 280 -7 341 4 546
34 642 11 37 44 103 75 149 31 47 55 94 55 109 0 71 -127 217 -233 270 -71 35
-179 48 -251 30z"/>
<path d="M10125 5433 c-158 -57 -247 -162 -276 -326 -23 -129 24 -332 105
-451 37 -54 46 -61 79 -64 20 -2 37 0 37 3 0 3 -18 32 -40 63 -84 120 -112
283 -69 397 30 81 112 163 194 195 80 31 182 38 240 15 102 -38 175 -170 175
-316 0 -89 -12 -114 -66 -135 -43 -16 -50 -27 -38 -57 5 -13 12 -13 57 -1 29
8 69 14 91 14 l39 0 -5 123 c-4 102 -10 137 -37 217 -54 162 -128 258 -238
310 -66 32 -179 37 -248 13z"/>
<path d="M6062 5399 c-73 -29 -164 -115 -202 -192 -56 -116 -60 -153 -59 -682
l0 -480 59 215 c86 313 92 345 97 588 l5 212 47 -1 c122 -1 252 -61 356 -165
134 -131 160 -273 105 -556 -28 -145 -27 -193 5 -214 20 -13 40 -15 85 -11 32
3 63 8 69 12 8 4 11 147 11 453 0 477 -4 522 -51 615 -52 101 -139 174 -247
207 -86 27 -208 26 -280 -1z"/>
<path d="M816 4558 c-3 -13 -15 -88 -26 -168 -12 -80 -24 -155 -27 -167 -4
-19 -1 -23 20 -23 22 0 27 6 34 43 8 37 12 42 39 45 34 3 498 -72 567 -92 42
-12 42 -12 45 -64 3 -47 5 -52 26 -52 21 0 24 6 30 63 9 80 36 265 43 295 4
18 1 22 -19 22 -21 0 -27 -6 -34 -42 -8 -37 -13 -43 -36 -46 -28 -3 -473 69
-564 91 l-49 12 -3 53 c-3 44 -6 52 -22 52 -12 0 -21 -9 -24 -22z"/>
<path d="M9974 4464 c4 -9 9 -58 12 -108 8 -146 10 -154 39 -149 21 5 24 11
27 52 3 45 4 46 35 43 18 -1 56 -10 85 -20 l53 -17 12 -125 c18 -194 25 -172
-66 -219 -44 -23 -82 -38 -84 -34 -3 5 -8 25 -12 46 -6 31 -11 37 -32 37 -25
0 -25 -2 -20 -47 4 -27 12 -109 18 -183 6 -74 14 -139 18 -143 17 -18 41 6 41
39 0 44 4 47 379 264 l303 175 -5 43 c-3 24 -6 44 -8 46 -2 1 -152 51 -334
110 -401 131 -405 133 -405 184 0 18 -6 22 -31 22 -25 0 -30 -3 -25 -16z m468
-266 c70 -23 128 -45 128 -48 0 -3 -58 -38 -128 -77 l-127 -73 -6 48 c-15 109
-18 192 -6 192 6 0 69 -19 139 -42z"/>
<path d="M1300 3978 c0 -22 8 -27 59 -43 71 -21 71 -22 71 -195 l0 -117 -57
-5 c-32 -3 -172 -3 -311 1 -280 7 -272 5 -272 74 0 33 -3 37 -25 37 l-25 0 0
-195 0 -195 24 0 c23 0 25 5 28 47 3 47 4 48 43 55 51 9 347 10 493 1 l114 -6
16 -34 c9 -18 22 -33 29 -33 10 0 13 59 13 304 l0 303 -62 7 c-35 4 -80 10
-100 13 -35 5 -38 4 -38 -19z"/>
<path d="M10045 3527 c-3 -11 -36 -342 -35 -360 0 -5 10 -7 22 -5 16 2 24 12
29 34 11 55 13 56 118 49 82 -5 390 -43 500 -61 l33 -5 -6 -62 c-9 -71 -25
-107 -63 -137 -23 -18 -38 -21 -86 -18 -46 3 -63 10 -87 33 -38 36 -65 105
-56 145 4 21 1 32 -8 36 -7 3 -66 -26 -132 -64 -65 -37 -156 -88 -201 -112
-93 -50 -88 -42 -99 -187 -6 -86 -5 -93 12 -93 11 0 25 14 34 32 12 26 48 51
185 130 94 53 174 96 179 95 4 -2 17 -25 27 -52 69 -181 279 -196 330 -24 5
19 18 131 29 249 11 118 23 234 26 258 6 40 6 42 -20 42 -20 0 -26 -5 -26 -21
0 -42 -18 -59 -64 -59 -93 0 -550 56 -578 71 -13 7 -18 21 -18 48 0 31 -4 40
-21 44 -11 3 -22 0 -24 -6z"/>
<path d="M1448 3273 c-14 -3 -18 -15 -18 -47 l0 -43 -137 -102 c-76 -55 -217
-159 -313 -230 l-175 -128 3 -39 c2 -22 7 -42 10 -46 4 -3 148 -36 321 -73
403 -86 422 -91 440 -133 14 -30 43 -43 54 -24 3 4 -3 48 -13 97 -11 50 -22
107 -25 128 -5 31 -10 37 -31 37 -24 0 -25 -3 -22 -47 3 -48 3 -48 -30 -51
-46 -5 -139 16 -145 32 -12 29 -48 269 -43 281 6 18 121 95 140 95 9 0 19 -16
26 -40 6 -22 16 -40 23 -40 34 1 35 15 7 160 -15 80 -31 162 -34 183 -4 20
-10 36 -14 36 -4 -1 -15 -3 -24 -6z m-180 -480 c18 -85 34 -184 30 -188 -3 -4
-279 53 -285 59 -3 3 230 175 239 176 3 0 11 -21 16 -47z"/>
<path d="M9867 2352 c-37 -152 -67 -285 -67 -294 0 -10 6 -18 13 -18 6 0 44
-13 82 -29 39 -16 73 -27 78 -24 4 2 7 14 7 27 0 17 -12 28 -51 46 l-50 24 6
40 c4 23 18 89 31 147 l25 107 137 -35 c75 -19 141 -38 145 -42 8 -8 -3 -67
-30 -160 l-15 -54 -48 6 c-43 5 -49 4 -54 -16 -3 -11 -4 -23 -2 -24 3 -4 171
-51 212 -60 16 -4 23 1 27 17 5 18 -1 24 -30 37 l-36 14 6 57 c4 31 14 82 24
113 l18 57 125 -40 c69 -22 126 -41 128 -43 5 -4 -48 -205 -64 -243 -14 -33
-15 -34 -58 -28 -36 6 -45 4 -50 -10 -4 -10 -3 -21 1 -25 13 -11 144 -61 149
-56 3 2 18 58 33 123 77 319 113 474 115 481 0 4 -9 9 -21 11 -16 2 -24 -4
-33 -32 -19 -57 -16 -58 -320 31 -180 52 -300 92 -316 104 -7 5 -14 23 -18 39
-14 72 -32 27 -99 -248z"/>
<path d="M1889 1528 c18 -6 21 -13 17 -40 -3 -18 -11 -69 -17 -113 -15 -113
-19 -126 -43 -135 -15 -6 0 -9 49 -9 54 0 65 2 46 10 -21 8 -23 13 -17 57 12
84 11 82 78 82 l61 0 -7 -54 c-8 -72 -14 -84 -39 -89 -12 -2 10 -5 48 -5 48
-1 63 2 49 8 -15 6 -20 15 -18 32 2 13 11 70 19 128 11 74 21 109 33 120 16
14 13 15 -41 17 -50 1 -56 0 -42 -11 15 -11 17 -22 11 -69 l-7 -57 -66 0 -65
0 6 30 c3 17 9 44 12 61 3 17 14 33 24 37 10 4 -11 7 -47 8 -44 0 -59 -2 -44
-8z"/>
<path d="M2249 1524 c13 -11 13 -24 -3 -140 -12 -92 -22 -133 -33 -141 -14
-11 2 -13 89 -13 l106 0 5 33 c6 41 0 47 -12 13 -10 -24 -15 -26 -66 -26 -61
0 -60 -2 -49 84 l7 46 48 0 c27 0 49 5 49 10 0 6 -21 10 -46 10 l-46 0 7 53
c4 28 10 56 15 60 4 5 27 7 51 5 37 -3 44 -7 49 -28 6 -25 6 -25 12 5 3 16 4
33 1 38 -2 4 -48 6 -102 5 -76 -2 -94 -6 -82 -14z"/>
<path d="M2573 1394 c-46 -87 -86 -150 -98 -155 -14 -5 -3 -8 35 -8 43 0 50 2
32 9 -22 9 -22 10 -6 47 9 21 18 44 21 51 3 7 24 12 54 12 53 0 54 -1 63 -63
4 -32 2 -39 -17 -47 -16 -6 -4 -9 43 -8 36 0 57 2 48 5 -22 5 -23 11 -44 171
-24 176 -29 176 -131 -14z m81 34 l7 -58 -40 0 c-23 0 -41 3 -41 6 0 9 62 116
65 112 1 -2 6 -29 9 -60z"/>
<path d="M2868 1529 c19 -7 23 -14 18 -36 -3 -16 -12 -75 -21 -133 -11 -74
-20 -109 -32 -117 -14 -11 2 -13 89 -13 101 0 106 1 112 23 3 12 6 31 5 42 0
14 -4 11 -14 -12 -13 -32 -16 -33 -70 -33 -65 0 -63 -10 -35 150 11 63 20 116
20 118 0 1 9 6 19 10 12 4 -7 8 -47 8 -48 1 -61 -1 -44 -7z"/>
<path d="M3158 1529 c26 -10 26 -11 7 -141 -21 -138 -24 -146 -48 -151 -12 -2
10 -5 48 -5 53 -1 64 2 47 9 -19 7 -23 14 -18 36 3 16 13 77 22 136 14 85 21
110 35 115 10 4 -12 8 -49 8 -46 1 -60 -1 -44 -7z"/>
<path d="M3338 1529 c12 -5 25 -15 28 -23 10 -27 -34 -250 -53 -263 -14 -11
-9 -13 33 -12 40 0 45 2 26 9 -21 9 -22 14 -16 62 3 29 12 80 18 112 l12 59
64 -121 c45 -84 70 -122 83 -122 9 0 17 1 17 3 0 16 51 281 55 288 4 5 0 9 -7
9 -7 0 -24 3 -38 5 l-25 6 23 -11 c19 -8 23 -15 18 -37 -3 -16 -10 -65 -17
-110 -6 -46 -14 -83 -18 -83 -3 0 -34 53 -69 118 l-62 117 -47 1 c-36 1 -42
-1 -25 -7z"/>
<path d="M3795 1521 c-75 -35 -105 -85 -105 -177 0 -48 4 -60 29 -85 26 -25
37 -29 86 -29 30 0 71 7 90 14 31 13 35 19 35 50 0 23 6 39 18 45 13 8 6 10
-33 11 -29 0 -45 -4 -37 -8 9 -6 10 -19 4 -48 -10 -48 -43 -64 -92 -44 -37 15
-50 43 -50 110 0 57 13 96 42 127 45 48 147 37 149 -16 1 -21 3 -19 11 13 8
30 8 40 -3 47 -24 15 -102 9 -144 -10z"/>
<path d="M4168 1529 c12 -5 22 -13 22 -19 0 -9 -22 -158 -35 -237 -4 -23 -12
-33 -28 -36 -12 -2 10 -5 48 -5 52 -1 64 2 47 8 -20 9 -22 15 -17 47 17 101
10 93 80 93 l62 0 -8 -47 c-15 -82 -18 -91 -37 -96 -9 -3 12 -5 48 -5 36 0 57
2 46 5 -17 5 -18 12 -12 71 12 116 31 204 47 216 13 9 4 11 -43 13 -51 1 -57
0 -43 -11 15 -11 17 -22 11 -69 l-7 -57 -65 0 c-57 0 -65 2 -60 18 2 9 8 36
11 60 5 29 13 46 25 50 11 4 -11 8 -48 8 -46 1 -60 -1 -44 -7z"/>
<path d="M4575 1408 c-37 -72 -78 -142 -91 -155 l-23 -23 47 1 c26 1 39 3 30
6 -23 6 -23 25 2 73 20 39 22 40 70 40 41 0 50 -3 50 -17 0 -10 3 -34 6 -55 6
-32 4 -37 -17 -41 -13 -2 5 -5 40 -6 54 -1 62 1 48 12 -12 8 -22 50 -37 144
-11 72 -20 136 -20 142 0 6 -9 11 -19 11 -15 0 -36 -32 -86 -132z m74 0 c1
-38 1 -38 -40 -38 l-40 0 33 62 c29 56 33 59 39 37 4 -13 7 -41 8 -61z"/>
<path d="M4846 1529 c12 -4 25 -13 29 -19 13 -21 -27 -242 -47 -262 -17 -17
-16 -18 30 -17 38 0 43 2 25 9 -25 10 -25 24 1 170 l11 65 69 -123 c48 -87 73
-122 84 -120 12 2 21 34 38 134 11 73 24 139 27 148 4 9 1 16 -6 16 -7 0 -23
3 -37 5 l-25 6 24 -11 c21 -9 23 -14 17 -58 -18 -123 -29 -173 -37 -165 -5 5
-36 58 -68 118 l-60 109 -48 2 c-34 1 -42 -1 -27 -7z"/>
<path d="M5218 1526 c9 -5 18 -10 20 -11 1 -1 -7 -60 -18 -131 -14 -94 -24
-132 -37 -141 -14 -11 -2 -13 68 -13 68 0 93 4 129 23 63 32 83 64 88 143 8
117 -17 138 -165 139 -66 0 -96 -3 -85 -9z m179 -28 c30 -33 35 -75 18 -143
-21 -83 -61 -120 -118 -111 -23 4 -43 9 -45 11 -2 2 5 60 17 128 12 69 21 128
21 131 0 3 19 6 43 6 32 0 49 -6 64 -22z"/>
<path d="M5613 1521 c-33 -21 -46 -48 -45 -95 1 -37 12 -48 70 -66 41 -13 47
-19 50 -46 4 -41 -20 -64 -67 -64 -41 0 -60 14 -62 45 -1 14 -4 10 -12 -13
-13 -42 -1 -52 66 -52 40 0 53 5 77 29 62 61 50 115 -31 146 -46 18 -55 25
-57 49 -9 73 104 93 121 21 3 -11 5 -4 6 16 1 25 -4 39 -15 43 -29 11 -69 6
-101 -13z"/>
<path d="M6024 1520 c-50 -25 -80 -64 -95 -124 -14 -58 -5 -111 26 -142 19
-19 35 -24 74 -24 49 0 121 25 121 42 0 5 -13 2 -30 -7 -40 -21 -82 -19 -114
6 -23 18 -26 27 -26 87 0 115 50 175 129 156 29 -7 37 -15 42 -39 6 -30 12
-24 22 23 10 44 -78 57 -149 22z"/>
<path d="M6304 1394 c-48 -90 -86 -149 -98 -154 -15 -6 -5 -9 34 -9 42 0 50 2
33 9 -22 9 -22 10 -7 47 24 57 32 63 85 63 47 0 49 -1 49 -27 0 -16 3 -38 6
-50 5 -18 1 -25 -17 -32 -19 -8 -10 -10 41 -9 36 0 58 2 49 5 -18 4 -19 9 -45
186 -24 160 -30 158 -130 -29z m85 -1 c1 -20 -4 -23 -39 -23 l-40 0 32 63 32
62 7 -40 c4 -22 8 -50 8 -62z"/>
<path d="M6600 1528 c24 -9 24 -5 0 -153 -11 -66 -20 -123 -20 -127 0 -4 -10
-9 -22 -11 -13 -2 9 -5 47 -5 51 -1 64 2 48 8 -13 5 -23 12 -23 15 0 10 30
210 36 238 5 23 11 27 40 27 70 0 73 -89 5 -118 l-39 -17 42 -77 c41 -77 41
-78 81 -78 31 1 36 3 23 10 -9 6 -33 40 -54 77 -34 62 -36 68 -20 77 67 40 83
78 52 122 -13 17 -27 19 -115 19 -55 0 -92 -3 -81 -7z"/>
<path d="M6939 1529 c25 -10 25 -6 6 -133 -22 -142 -23 -146 -48 -156 -16 -6
-3 -9 48 -9 52 0 64 3 48 9 -13 5 -23 12 -23 15 0 10 30 210 36 238 3 16 14
31 24 35 10 4 -11 7 -47 8 -43 0 -58 -2 -44 -7z"/>
<path d="M7117 1529 c11 -4 23 -12 26 -17 5 -7 -6 -94 -29 -230 -3 -21 -13
-36 -27 -42 -17 -7 -9 -9 33 -9 43 0 50 2 33 9 -13 5 -23 14 -23 20 0 18 31
204 35 208 2 2 32 -51 67 -117 69 -132 92 -151 103 -83 25 153 47 248 58 257
10 7 1 10 -32 11 -25 0 -38 -2 -28 -4 12 -2 17 -13 17 -35 0 -44 -23 -197 -30
-197 -3 0 -34 53 -69 118 l-64 117 -46 1 c-32 1 -39 -1 -24 -7z"/>
<path d="M7575 1522 c-108 -51 -148 -191 -75 -264 24 -24 36 -28 83 -28 84 0
115 15 123 58 4 21 11 43 17 50 7 9 -1 12 -34 12 -31 0 -40 -3 -32 -11 13 -13
0 -78 -19 -90 -39 -25 -103 7 -117 57 -11 41 0 117 24 163 33 65 163 63 166
-3 1 -13 5 -6 11 17 6 21 7 41 4 44 -16 16 -113 13 -151 -5z"/>
<path d="M7950 1528 c19 -7 21 -13 17 -41 -3 -17 -14 -79 -23 -136 -15 -85
-21 -104 -38 -111 -14 -6 2 -9 49 -9 53 0 64 3 47 10 -21 8 -23 13 -17 56 12
85 10 83 77 83 l61 0 -7 -37 c-3 -21 -6 -46 -6 -55 0 -10 -9 -27 -20 -38 l-20
-20 63 1 c49 0 57 2 39 10 -19 7 -23 14 -18 36 3 16 13 73 22 128 10 66 21
105 33 115 15 14 11 15 -42 17 -49 1 -56 -1 -42 -11 14 -10 16 -22 10 -69 l-7
-57 -65 0 -65 0 6 30 c3 17 9 44 12 61 3 17 14 33 24 37 10 4 -11 7 -47 8 -46
0 -59 -2 -43 -8z"/>
<path d="M8309 1523 c17 -11 16 -19 -3 -143 -14 -87 -26 -134 -36 -140 -10 -7
21 -10 91 -10 l107 0 5 33 c6 41 0 47 -12 13 -10 -24 -15 -26 -67 -26 l-57 0
7 46 c3 26 6 55 6 65 0 16 8 19 50 19 28 0 50 5 50 10 0 6 -21 10 -46 10 l-46
0 7 53 c4 28 10 56 15 60 4 5 27 7 51 5 36 -3 44 -7 50 -28 4 -14 8 -18 8 -10
1 8 4 25 7 38 l7 23 -106 -3 c-85 -2 -102 -5 -88 -15z"/>
<path d="M8634 1394 c-48 -90 -86 -149 -98 -154 -15 -6 -5 -9 34 -9 43 0 50 2
32 9 -22 9 -22 10 -6 47 9 21 18 44 21 51 3 7 25 12 59 12 l54 0 0 -54 c0 -44
-4 -55 -17 -59 -10 -3 11 -5 47 -5 36 0 58 2 50 5 -24 10 -27 19 -46 164 -23
185 -28 185 -130 -7z m80 34 l6 -58 -40 0 c-22 0 -40 2 -40 5 0 17 60 120 65
113 1 -2 5 -29 9 -60z"/>
<path d="M8932 1527 c16 -6 19 -13 15 -35 -3 -15 -13 -77 -22 -139 -15 -100
-20 -112 -39 -116 -11 -2 11 -4 49 -4 39 0 60 2 48 4 -27 5 -27 6 -8 131 25
160 22 152 60 152 70 0 73 -90 5 -119 l-39 -16 42 -77 c41 -78 41 -78 81 -78
32 1 37 3 24 10 -9 6 -34 42 -57 80 l-40 70 34 14 c55 23 69 66 36 107 -18 22
-26 24 -115 24 -55 0 -86 -3 -74 -8z"/>
<path d="M9240 1523 c0 -10 -3 -29 -5 -43 l-6 -25 13 25 c16 32 27 40 61 40
33 0 33 -7 12 -141 -23 -137 -23 -137 -48 -142 -12 -2 10 -5 48 -5 52 -1 64 2
47 8 -19 8 -22 15 -17 42 11 66 35 223 35 231 0 5 17 7 37 5 33 -3 39 -7 43
-33 l6 -30 7 34 c4 18 7 37 7 42 0 5 -54 9 -120 9 -108 0 -120 -2 -120 -17z"/>
<path d="M9574 1506 c-25 -25 -34 -43 -34 -67 0 -47 9 -57 66 -77 45 -16 49
-21 52 -53 4 -44 -14 -61 -63 -61 -42 0 -65 16 -66 46 -1 13 -4 7 -9 -14 -10
-43 -2 -50 64 -50 42 0 53 5 83 35 29 29 34 40 31 72 -3 38 -7 42 -82 75 -43
19 -54 42 -36 76 28 48 109 40 111 -12 1 -13 4 -7 9 14 10 41 1 50 -53 50 -31
0 -46 -7 -73 -34z"/>
</g>
</svg>
